<?xml version="1.0" standalone="no"?>
<!DOCTYPE svg PUBLIC "-//W3C//DTD SVG 20010904//EN"
 "http://www.w3.org/TR/2001/REC-SVG-20010904/DTD/svg10.dtd">
<svg version="1.0" xmlns="http://www.w3.org/2000/svg"
 width="1080.000000pt" height="1080.000000pt" viewBox="0 0 1080.000000 1080.000000"
 preserveAspectRatio="xMidYMid meet">
<metadata>
Created by potrace 1.11, written by Peter Selinger 2001-2013
</metadata>
<g transform="translate(0.000000,1080.000000) scale(0.100000,-0.100000)"
fill="#000000" stroke="none">
<path d="M703 6658 c14 -24 37 -65 52 -93 46 -83 225 -399 235 -415 12 -20
142 -249 280 -495 62 -110 119 -210 126 -222 8 -13 15 -26 15 -30 0 -5 6 -15
13 -23 7 -8 26 -40 42 -70 16 -30 33 -58 39 -62 5 -4 6 -8 1 -8 -5 0 -2 -8 6
-17 8 -10 31 -47 51 -83 19 -36 49 -89 66 -118 17 -29 31 -55 31 -58 0 -3 8
-18 18 -32 11 -15 35 -56 54 -92 19 -36 63 -114 98 -175 89 -155 223 -392 252
-445 14 -25 35 -61 47 -81 l21 -36 374 0 374 0 19 36 c11 20 53 95 93 166 40
72 172 308 293 525 121 217 229 411 240 430 11 19 31 55 45 80 14 25 42 76 63
113 22 38 39 74 39 80 0 7 17 -19 37 -58 67 -127 207 -241 348 -281 129 -37
137 -37 1015 -39 470 -1 871 -5 890 -9 54 -11 127 -56 154 -95 69 -100 50
-270 -36 -334 -71 -52 -24 -50 -1218 -53 -613 -1 -1122 -3 -1130 -3 -8 -1 -27
-22 -41 -48 -14 -27 -77 -136 -139 -243 -146 -253 -150 -260 -150 -264 0 -6
2675 1 2710 8 19 4 55 11 80 17 25 5 54 11 65 14 111 22 251 100 341 189 135
135 198 322 197 581 0 78 -4 121 -18 210 -7 49 -38 136 -73 203 -38 76 -162
222 -188 222 -8 0 -14 4 -14 8 0 21 -206 112 -290 127 -14 3 -36 7 -50 10 -77
15 -206 18 -925 20 -564 1 -802 5 -830 13 -103 29 -164 155 -128 263 23 67 51
99 108 125 l52 24 2434 -2 2434 -3 46 -23 c53 -26 83 -63 98 -118 33 -121 -24
-234 -132 -266 -32 -9 -310 -12 -1137 -13 l-1095 -1 0 -804 0 -805 312 -1 313
-1 -1 441 c0 242 1 479 1 526 l0 85 783 1 c842 0 893 2 1055 40 236 56 395
171 487 353 87 173 100 473 30 676 -42 122 -114 220 -219 299 -99 75 -197 114
-406 162 -19 5 -1333 10 -2920 11 l-2885 3 -65 -112 c-36 -61 -78 -134 -94
-162 -31 -56 -231 -400 -265 -456 -11 -19 -24 -41 -28 -49 -3 -8 -55 -98 -116
-200 -60 -102 -122 -208 -137 -236 -15 -27 -42 -75 -60 -105 -18 -30 -41 -68
-50 -85 -215 -375 -329 -563 -336 -552 -5 6 -16 26 -25 42 -32 59 -83 151
-124 225 -49 87 -97 174 -135 245 -15 28 -41 74 -58 103 -18 29 -32 55 -32 57
0 3 -40 75 -88 162 -49 87 -106 190 -127 228 -21 39 -70 129 -110 200 -40 72
-86 155 -103 185 -16 30 -73 133 -126 228 -53 96 -96 176 -96 178 0 2 -14 26
-31 54 l-31 50 -370 0 -370 0 25 -42z"/>
</g>
</svg>
